<svg width="314" height="70" viewBox="0 0 314 70" fill="none" xmlns="http://www.w3.org/2000/svg">
<rect x="11" y="11" width="302" height="58" stroke="#F2F2F2" stroke-width="2"/>
<rect width="304" height="60" fill="#FF352B"/>
<path d="M107.184 30.24C108.192 30.56 108.976 31.08 109.536 31.8C110.112 32.504 110.4 33.336 110.4 34.296C110.4 35.304 110.072 36.184 109.416 36.936C108.76 37.672 107.88 38.24 106.776 38.64C105.688 39.04 104.496 39.24 103.2 39.24C102.08 39.24 100.952 39.088 99.816 38.784C98.696 38.464 97.656 37.992 96.696 37.368L97.704 35.088C98.44 35.584 99.256 35.968 100.152 36.24C101.048 36.496 101.936 36.624 102.816 36.624C104.08 36.624 105.128 36.376 105.96 35.88C106.808 35.384 107.232 34.704 107.232 33.84C107.232 33.104 106.928 32.544 106.32 32.16C105.712 31.776 104.872 31.584 103.8 31.584H99.888V29.136H103.56C104.488 29.136 105.216 28.944 105.744 28.56C106.272 28.176 106.536 27.656 106.536 27C106.536 26.216 106.176 25.608 105.456 25.176C104.752 24.744 103.848 24.528 102.744 24.528C101.992 24.528 101.216 24.64 100.416 24.864C99.616 25.072 98.864 25.384 98.16 25.8L97.176 23.28C98.04 22.816 98.952 22.472 99.912 22.248C100.888 22.008 101.856 21.888 102.816 21.888C104.064 21.888 105.208 22.08 106.248 22.464C107.304 22.848 108.144 23.4 108.768 24.12C109.392 24.824 109.704 25.656 109.704 26.616C109.704 27.448 109.48 28.176 109.032 28.8C108.584 29.424 107.968 29.904 107.184 30.24ZM118.378 26.04C120.266 26.04 121.706 26.496 122.698 27.408C123.706 28.304 124.21 29.664 124.21 31.488V39H121.378V37.44C121.01 38 120.482 38.432 119.794 38.736C119.122 39.024 118.306 39.168 117.346 39.168C116.386 39.168 115.546 39.008 114.826 38.688C114.106 38.352 113.546 37.896 113.146 37.32C112.762 36.728 112.57 36.064 112.57 35.328C112.57 34.176 112.994 33.256 113.842 32.568C114.706 31.864 116.058 31.512 117.898 31.512H121.21V31.32C121.21 30.424 120.938 29.736 120.394 29.256C119.866 28.776 119.074 28.536 118.018 28.536C117.298 28.536 116.586 28.648 115.882 28.872C115.194 29.096 114.61 29.408 114.13 29.808L112.954 27.624C113.626 27.112 114.434 26.72 115.378 26.448C116.322 26.176 117.322 26.04 118.378 26.04ZM117.97 36.984C118.722 36.984 119.386 36.816 119.962 36.48C120.554 36.128 120.97 35.632 121.21 34.992V33.504H118.114C116.386 33.504 115.522 34.072 115.522 35.208C115.522 35.752 115.738 36.184 116.17 36.504C116.602 36.824 117.202 36.984 117.97 36.984ZM133.25 33.864H130.922V39H127.922V26.184H130.922V31.368H133.322L137.114 26.184H140.33L135.674 32.352L140.642 39H137.114L133.25 33.864ZM147.3 26.04C149.188 26.04 150.628 26.496 151.62 27.408C152.628 28.304 153.132 29.664 153.132 31.488V39H150.3V37.44C149.932 38 149.404 38.432 148.716 38.736C148.044 39.024 147.228 39.168 146.268 39.168C145.308 39.168 144.468 39.008 143.748 38.688C143.028 38.352 142.468 37.896 142.068 37.32C141.684 36.728 141.492 36.064 141.492 35.328C141.492 34.176 141.916 33.256 142.764 32.568C143.628 31.864 144.98 31.512 146.82 31.512H150.132V31.32C150.132 30.424 149.86 29.736 149.316 29.256C148.788 28.776 147.996 28.536 146.94 28.536C146.22 28.536 145.508 28.648 144.804 28.872C144.116 29.096 143.532 29.408 143.052 29.808L141.876 27.624C142.548 27.112 143.356 26.72 144.3 26.448C145.244 26.176 146.244 26.04 147.3 26.04ZM146.892 36.984C147.644 36.984 148.308 36.816 148.884 36.48C149.476 36.128 149.892 35.632 150.132 34.992V33.504H147.036C145.308 33.504 144.444 34.072 144.444 35.208C144.444 35.752 144.66 36.184 145.092 36.504C145.524 36.824 146.124 36.984 146.892 36.984ZM164.336 32.328C165.136 32.552 165.752 32.92 166.184 33.432C166.632 33.928 166.856 34.528 166.856 35.232C166.856 36.016 166.592 36.712 166.064 37.32C165.536 37.912 164.808 38.376 163.88 38.712C162.952 39.048 161.896 39.216 160.712 39.216C159.72 39.216 158.752 39.104 157.808 38.88C156.864 38.64 156.008 38.304 155.24 37.872L156.104 35.64C156.728 35.992 157.432 36.264 158.216 36.456C159 36.648 159.784 36.744 160.568 36.744C161.576 36.744 162.36 36.592 162.92 36.288C163.496 35.968 163.784 35.536 163.784 34.992C163.784 34.496 163.56 34.112 163.112 33.84C162.68 33.568 162.064 33.432 161.264 33.432H158.768V31.416H161.024C161.776 31.416 162.36 31.288 162.776 31.032C163.208 30.776 163.424 30.416 163.424 29.952C163.424 29.488 163.168 29.12 162.656 28.848C162.144 28.576 161.44 28.44 160.544 28.44C159.264 28.44 157.912 28.752 156.488 29.376L155.72 27.168C157.4 26.384 159.096 25.992 160.808 25.992C161.896 25.992 162.872 26.144 163.736 26.448C164.6 26.736 165.272 27.152 165.752 27.696C166.248 28.224 166.496 28.832 166.496 29.52C166.496 30.144 166.304 30.704 165.92 31.2C165.536 31.68 165.008 32.056 164.336 32.328ZM174.745 26.04C176.633 26.04 178.073 26.496 179.065 27.408C180.073 28.304 180.577 29.664 180.577 31.488V39H177.745V37.44C177.377 38 176.849 38.432 176.161 38.736C175.489 39.024 174.673 39.168 173.713 39.168C172.753 39.168 171.913 39.008 171.193 38.688C170.473 38.352 169.913 37.896 169.513 37.32C169.129 36.728 168.937 36.064 168.937 35.328C168.937 34.176 169.361 33.256 170.209 32.568C171.073 31.864 172.425 31.512 174.265 31.512H177.577V31.32C177.577 30.424 177.305 29.736 176.761 29.256C176.233 28.776 175.441 28.536 174.385 28.536C173.665 28.536 172.953 28.648 172.249 28.872C171.561 29.096 170.977 29.408 170.497 29.808L169.321 27.624C169.993 27.112 170.801 26.72 171.745 26.448C172.689 26.176 173.689 26.04 174.745 26.04ZM174.337 36.984C175.089 36.984 175.753 36.816 176.329 36.48C176.921 36.128 177.337 35.632 177.577 34.992V33.504H174.481C172.753 33.504 171.889 34.072 171.889 35.208C171.889 35.752 172.105 36.184 172.537 36.504C172.969 36.824 173.569 36.984 174.337 36.984ZM194.441 28.728H189.953V39H186.953V28.728H182.441V26.184H194.441V28.728ZM203.05 30.408C204.682 30.408 205.93 30.776 206.794 31.512C207.674 32.248 208.114 33.288 208.114 34.632C208.114 36.04 207.634 37.128 206.674 37.896C205.714 38.664 204.362 39.04 202.618 39.024L196.618 39V26.184H199.618V30.384L203.05 30.408ZM202.354 36.816C203.234 36.832 203.906 36.648 204.37 36.264C204.834 35.88 205.066 35.32 205.066 34.584C205.066 33.864 204.842 33.336 204.394 33C203.946 32.664 203.266 32.488 202.354 32.472L199.618 32.448V36.792L202.354 36.816Z" fill="#F2F2F2"/>
</svg>
